<?xml version="1.0" encoding="utf-8"?>
<!-- Generator: Adobe Illustrator 16.0.0, SVG Export Plug-In . SVG Version: 6.00 Build 0)  -->
<!DOCTYPE svg PUBLIC "-//W3C//DTD SVG 1.1//EN" "http://www.w3.org/Graphics/SVG/1.1/DTD/svg11.dtd">
<svg version="1.1" id="Layer_1" xmlns="http://www.w3.org/2000/svg" xmlns:xlink="http://www.w3.org/1999/xlink" x="0px" y="0px"
	 width="11px" height="7px" viewBox="0 0 11 7" enable-background="new 0 0 11 7" xml:space="preserve">
<g>
	<path fill="#FFFFFF" d="M9.895,1.1c-0.141-0.134-0.363-0.134-0.504,0L5.5,5.143L1.61,1.1c-0.142-0.133-0.363-0.133-0.505,0
		c-0.133,0.125-0.14,0.333-0.016,0.466C1.094,1.572,1.1,1.577,1.105,1.582l4.103,4.266C5.22,5.864,5.216,5.887,5.232,5.902
		C5.306,5.973,5.402,6.003,5.499,6c0.099,0.006,0.195-0.029,0.268-0.098C5.784,5.887,5.78,5.863,5.792,5.846l4.103-4.264
		c0.134-0.123,0.142-0.331,0.02-0.463C9.908,1.112,9.901,1.106,9.895,1.1"/>
	<path fill="#FFFFFF" d="M5.521,6.357L5.521,6.357L5.478,6.356C5.309,6.38,5.12,6.288,4.986,6.161L4.893,6.03L0.848,1.83
		C0.57,1.533,0.584,1.098,0.861,0.839c0.27-0.253,0.723-0.253,0.992,0L5.5,4.628l3.634-3.775c0.291-0.278,0.737-0.267,1.007-0.011
		c0.292,0.314,0.273,0.748-0.005,1.003L6.008,6.166C5.877,6.288,5.703,6.357,5.521,6.357z"/>
</g>
</svg>
