<?xml version="1.0" encoding="utf-8"?>
<!-- Generator: Adobe Illustrator 20.1.0, SVG Export Plug-In . SVG Version: 6.00 Build 0)  -->
<svg version="1.1" id="レイヤー_1" xmlns="http://www.w3.org/2000/svg" xmlns:xlink="http://www.w3.org/1999/xlink" x="0px"
	 y="0px" width="21px" height="21px" viewBox="0 0 21 21" style="enable-background:new 0 0 21 21;" xml:space="preserve">
<style type="text/css">
	.st0{fill:#158ACB;}
</style>
<path class="st0" d="M18.2,19.7l-0.4,0.4l-0.6-0.5H3.3l-0.5,0.5l-0.3-0.3l0,0L6,16.3l0.3,0.3l-0.6,0.6h9.4l-0.6-0.9l0.3-0.3
	 M3.9,18.9h12.7l-1.1-1.2H5L3.9,18.9z M16.3,17H4.4c-0.9,0-1.6-0.7-1.6-1.6V2.6C2.8,1.7,3.5,1,4.4,1h12C17.2,1,18,1.7,18,2.6v12.8
	C17.9,16.3,17.2,17,16.3,17z M13.3,2.9V2.8c0-0.4-0.4-0.9-0.9-0.9H8.3c-0.4,0-0.9,0.4-0.9,0.9v0.1c0,0.4,0.4,0.9,0.9,0.9h4.2
	C12.9,3.7,13.3,3.4,13.3,2.9z M15.9,9.6V5.2h-11v4.4H15.9z M8.3,12.7v-0.2c0-0.6-0.5-1.2-1.2-1.2H6.9c-0.6,0-1.2,0.5-1.2,1.2v0.2
	c0,0.6,0.5,1.2,1.2,1.2h0.2C7.7,13.9,8.3,13.4,8.3,12.7z M15.2,12.7v-0.2c0-0.6-0.5-1.2-1.2-1.2h-0.2c-0.6,0-1.2,0.5-1.2,1.2v0.2
	c0,0.6,0.5,1.2,1.2,1.2H14C14.7,13.9,15.2,13.4,15.2,12.7z"/>
</svg>
