<?xml version="1.0" encoding="utf-8"?>
<!-- Generator: Adobe Illustrator 20.1.0, SVG Export Plug-In . SVG Version: 6.00 Build 0)  -->
<svg version="1.1" id="レイヤー_1" xmlns="http://www.w3.org/2000/svg" xmlns:xlink="http://www.w3.org/1999/xlink" x="0px"
	 y="0px" width="21px" height="21px" viewBox="0 0 21 21" style="enable-background:new 0 0 21 21;" xml:space="preserve">
<style type="text/css">
	.st0{fill:#158ACB;}
</style>
<path class="st0" d="M9.6,6.5H1.4c-0.5,0-1,0.4-1,1v8.9c0,0.5,0.4,1,1,1l15.1-0.2V9.6L9.6,6.5z M2.8,15C2.3,15,2,14.6,2,14.2
	c0-0.4,0.4-0.8,0.8-0.8s0.8,0.4,0.8,0.8S3.2,15,2.8,15z M7.7,15c-0.4,0-0.8-0.4-0.8-0.8c0-0.4,0.4-0.8,0.8-0.8
	c0.4,0,0.8,0.4,0.8,0.8S8.1,15,7.7,15z M8.7,11.6h-7V9h7V11.6z M12.9,12.3L10,11.8V9.2l2.8,0.9L12.9,12.3L12.9,12.3z M15.8,12.9
	l-1.9-0.4v-2l1.9,0.6V12.9z M20.6,6.7v10.6H18V6.4L20.6,6.7z M20.6,5.7L8.5,4.3V2.9h12.1V5.7z M7,8.4H3.3C3,8.4,2.8,8.2,2.8,7.9V7.5
	C2.8,7.2,3,7,3.3,7H7c0.3,0,0.5,0.2,0.5,0.5v0.4C7.5,8.2,7.3,8.4,7,8.4z"/>
</svg>
