<svg xmlns="http://www.w3.org/2000/svg" xmlns:xlink="http://www.w3.org/1999/xlink" width="104" height="106" viewBox="0 0 104 106">
    <defs>
        <circle id="b" cx="33" cy="33" r="33"/>
        <filter id="a" width="190.9%" height="190.9%" x="-45.5%" y="-45.5%" filterUnits="objectBoundingBox">
            <feOffset in="SourceAlpha" result="shadowOffsetOuter1"/>
            <feGaussianBlur in="shadowOffsetOuter1" result="shadowBlurOuter1" stdDeviation="10"/>
            <feColorMatrix in="shadowBlurOuter1" values="0 0 0 0 0 0 0 0 0 0.231372549 0 0 0 0 0.349019608 0 0 0 0.1 0"/>
        </filter>
    </defs>
    <g fill="none" fill-rule="evenodd">
        <g transform="translate(19 20)">
            <use fill="#000" filter="url(#a)" xlink:href="#b"/>
            <use fill="#F8B62D" xlink:href="#b"/>
        </g>
        <path fill="#FFF" d="M52 40c-7.733 0-14 5.484-14 12.25 0 3.866 2.053 7.31 5.25 9.554V68l7.17-3.584c.52.051 1.044.082 1.58.082 7.731 0 14-5.484 14-12.249C66 45.484 59.731 40 52 40m7 10.5a1.75 1.75 0 1 0-.001 3.498A1.75 1.75 0 0 0 59 50.5m-7 0a1.75 1.75 0 1 0-.001 3.5 1.75 1.75 0 0 0 .001-3.5m-7 0a1.75 1.75 0 1 0-.001 3.5 1.75 1.75 0 0 0 .001-3.5"/>
    </g>
</svg>
