<?xml version="1.0" encoding="utf-8"?>
<!-- Generator: Adobe Illustrator 16.0.0, SVG Export Plug-In . SVG Version: 6.00 Build 0)  -->
<!DOCTYPE svg PUBLIC "-//W3C//DTD SVG 1.1//EN" "http://www.w3.org/Graphics/SVG/1.1/DTD/svg11.dtd">
<svg version="1.1" id="Layer_1" xmlns="http://www.w3.org/2000/svg" xmlns:xlink="http://www.w3.org/1999/xlink" x="0px" y="0px"
	 width="18px" height="13px" viewBox="0 0 18 13" enable-background="new 0 0 18 13" xml:space="preserve">
<g>
	<path fill="#003B59" d="M16.855,1.145c-0.194-0.193-0.508-0.193-0.703,0l-9.669,9.653l-4.628-4.62
		C1.66,5.982,1.343,5.982,1.147,6.177C0.951,6.372,0.951,6.689,1.146,6.885l4.96,4.953c0.004,0.004,0.01,0.006,0.015,0.01
		c0.002,0.002,0.001,0.006,0.003,0.008c0.194,0.193,0.508,0.193,0.702,0l10.029-10.01C17.049,1.652,17.049,1.338,16.855,1.145"/>
	<path fill="#003B59" d="M6.475,12.501c-0.247,0-0.48-0.09-0.664-0.253l-0.001-0.001c-0.014-0.013-0.027-0.024-0.04-0.038
		l-0.019-0.018L0.792,7.238C0.604,7.05,0.5,6.798,0.5,6.531c0-0.268,0.104-0.519,0.294-0.708c0.38-0.378,1.039-0.375,1.415,0.002
		l4.274,4.267l9.316-9.301c0.381-0.377,1.032-0.375,1.409,0c0.189,0.189,0.293,0.439,0.293,0.705s-0.104,0.516-0.292,0.704
		l-10.03,10.01C6.991,12.397,6.741,12.501,6.475,12.501z M6.454,11.479l0.012,0.009L1.502,6.532L6.454,11.479z"/>
</g>
</svg>
