<?xml version="1.0" ?><!DOCTYPE svg  PUBLIC '-//W3C//DTD SVG 1.1//EN'  'http://www.w3.org/Graphics/SVG/1.1/DTD/svg11.dtd'><svg enable-background="new 0 0 64 64" height="64px" id="Layer_1" version="1.1" viewBox="0 0 64 64" width="64px" xml:space="preserve" xmlns="http://www.w3.org/2000/svg" xmlns:xlink="http://www.w3.org/1999/xlink"><g><g><path d="M60.525,2.577H3.473c-1.881,0-3.405,1.501-3.405,3.354v52.138c0,1.851,1.524,3.354,3.405,3.354h57.052    c1.881,0,3.406-1.503,3.406-3.354V5.932C63.932,4.078,62.406,2.577,60.525,2.577z M60.459,54.812c0,1.634-1.358,2.952-3.039,2.952    H6.527c-1.678,0-3.04-1.318-3.04-2.952V8.931c0-1.63,1.361-2.952,3.04-2.952H57.42c1.681,0,3.039,1.322,3.039,2.952V54.812z" fill="#241F20"/></g><g><circle cx="18.498" cy="14.653" fill="#241F20" r="5.103"/><path d="M24.449,22.146H12.229c-1.969,0-3.567,1.498-3.567,3.366v10.519c0,1.641,1.259,3.015,2.917,3.304    l-0.004,0.008c0,0,1,0.009,1.181,1.258c0.359,2.5,1.171,8.24,1.443,10.582c0.355,3.015,2.239,3.079,2.239,3.079    s1.683,0.421,3.873,0c2.17-0.421,2.374-2.945,2.374-2.945l1.358-10.926c0.111-0.897,0.95-1.032,0.95-1.032v-0.01    c1.71-0.249,3.028-1.641,3.028-3.317V25.513C28.02,23.645,26.418,22.146,24.449,22.146z" fill="#241F20"/></g><path d="M54.449,25.135c-0.002,0-0.003-0.004-0.005-0.004l-8.378-8.382c0,0,0,0-0.001,0   c-1.368-1.37-2.525-0.527-2.919-0.156l-0.155,0.154l-0.002,0.002l-7.955,7.954c-2.906,2.906-0.397,3.57-0.039,3.649h19.454   C54.454,28.353,57.054,27.738,54.449,25.135z" fill="#241F20"/><path d="M54.692,35.732l-19.919-0.024c0,0,0,0-0.002,0c-2.759,0.004-1.157,2-0.365,2.838l0.365,0.366l8.389,8.413   c0.351,0.335,1.674,1.396,3.173-0.099l8.36-8.342C57.698,35.887,54.72,35.735,54.692,35.732z" fill="#241F20"/></g></svg>