<svg xmlns="http://www.w3.org/2000/svg" width="20" height="16" viewBox="0 0 20 16">
    <path fill="#99B1BD" fill-rule="evenodd" d="M18.75 14.154c0 .338-.28.615-.625.615H1.875a.622.622 0 0 1-.625-.615V1.87L9.54 8.4c.006.01.002.024.012.032a.616.616 0 0 0 .449.173.613.613 0 0 0 .447-.173c.01-.008.005-.022.014-.032L18.75 1.87v12.284zM17.604 1.23l-7.603 5.994L2.395 1.23h15.21zm2.393-.628c0-.009-.005-.013-.005-.022a.604.604 0 0 0-.156-.372c-.01-.012-.005-.028-.015-.04-.014-.013-.036-.008-.051-.02a.621.621 0 0 0-.336-.137C19.409.01 19.39 0 19.366 0H.634C.61 0 .59.01.566.012A.617.617 0 0 0 .23.15C.215.16.194.156.18.169.17.182.174.198.163.21a.607.607 0 0 0-.155.372C.006.59.003.594.003.603.003.608 0 .61 0 .615v14.77c0 .34.28.615.625.615h18.75a.62.62 0 0 0 .625-.615V.615c0-.005-.003-.007-.003-.012z"/>
</svg>
