<svg xmlns="http://www.w3.org/2000/svg" width="21" height="22" viewBox="0 0 21 22">
    <path fill="#003B59" fill-rule="evenodd" d="M9 9h3V6H9v3zm2-4h1a1 1 0 0 1 1 1v3a1 1 0 0 1-1 1h-1v11.5a.5.5 0 0 1-1 0V10H9a1 1 0 0 1-1-1V6a1 1 0 0 1 1-1h1V.5a.5.5 0 0 1 1 0V5zm8 6h1a1 1 0 0 1 1 1v3a1 1 0 0 1-1 1h-1v5.5a.5.5 0 0 1-1 0V16h-1a1 1 0 0 1-1-1v-3a1 1 0 0 1 1-1h1V.5a.5.5 0 0 1 1 0V11zm-2 4h3v-3h-3v3zM3 14h1a1 1 0 0 1 1 1v3a1 1 0 0 1-1 1H3v2.5a.5.5 0 0 1-1 0V19H1a1 1 0 0 1-1-1v-3a1 1 0 0 1 1-1h1V.5a.5.5 0 0 1 1 0V14zm-2 4h3v-3H1v3z"/>
</svg>
