<?xml version="1.0" encoding="utf-8"?>
<!-- Generator: Adobe Illustrator 16.0.0, SVG Export Plug-In . SVG Version: 6.00 Build 0)  -->
<!DOCTYPE svg PUBLIC "-//W3C//DTD SVG 1.1//EN" "http://www.w3.org/Graphics/SVG/1.1/DTD/svg11.dtd">
<svg version="1.1" id="Layer_1" xmlns="http://www.w3.org/2000/svg" xmlns:xlink="http://www.w3.org/1999/xlink" x="0px" y="0px"
	 width="40px" height="40px" viewBox="0 0 40 40" enable-background="new 0 0 40 40" xml:space="preserve">
<g>
	<g>
		<g>
			<g id="a">
				<path fill="#FFFFFF" d="M3,0h34c1.656,0,3,1.343,3,3v34c0,1.656-1.344,3-3,3H3c-1.657,0-3-1.344-3-3V3C0,1.343,1.343,0,3,0z"/>
			</g>
		</g>
		<g>
			<path fill="#99B1BD" d="M36.5,40h-33C1.57,40,0,38.43,0,36.5v-33C0,1.57,1.57,0,3.5,0h33C38.43,0,40,1.57,40,3.5v33
				C40,38.43,38.43,40,36.5,40z M3.5,1C2.122,1,1,2.122,1,3.5v33C1,37.879,2.122,39,3.5,39h33c1.379,0,2.5-1.121,2.5-2.5v-33
				C39,2.122,37.879,1,36.5,1H3.5z"/>
		</g>
	</g>
	<g>
		<path fill="#99B1BD" d="M31.5,29H32V12h-1v16h-6v-7h-1v8H31.5z M8.5,29H8V12h1v10h6v1H9v5h10v1H8.5z M15,12h1v5h-1V12z M8,11h24v1
			H8V11z M12,17h7v1h-7V17z"/>
	</g>
</g>
</svg>
