<?xml version="1.0" ?><!DOCTYPE svg  PUBLIC '-//W3C//DTD SVG 1.1//EN'  'http://www.w3.org/Graphics/SVG/1.1/DTD/svg11.dtd'><svg enable-background="new 0 0 64 64" height="64px" id="Layer_1" version="1.1" viewBox="0 0 64 64" width="64px" xml:space="preserve" xmlns="http://www.w3.org/2000/svg" xmlns:xlink="http://www.w3.org/1999/xlink"><g><g><path d="M295.665,451.924c-0.491,0-0.983-0.318-1.254-0.812l-4.454-8.142h-11.363l-0.079-0.013    c0,0-0.229,0.004-0.23,0.004c-1.169,0-2.08-0.854-2.152-1.946l-0.71-10.828c-0.074-1.147,0.8-2.143,1.947-2.217l0.636-0.039    l0.145-0.005c1.094,0,2.006,0.853,2.077,1.941l0.25,3.925h7.509c0.281,0,0.52,0.316,0.52,0.69s-0.238,0.689-0.52,0.689h-7.42    l0.293,4.41h8.797c0.181,0,0.355,0.029,0.533,0.088l0.071,0.024l0.073,0.013c0.415,0.072,0.798,0.362,1.026,0.777l5.179,9.467    c0.375,0.694,0.207,1.524-0.377,1.846C296.007,451.883,295.845,451.924,295.665,451.924z" fill="#241F20"/><path d="M278.149,428.927c0.568,0,1.043,0.442,1.079,1.003l0.19,2.99l0.08,1.253h-0.003l0.143,2.133l0.16,2.41    l0.124,1.867h1.871h7.861c0.072,0,0.142,0.012,0.217,0.037l0.143,0.047l0.146,0.026c0.092,0.016,0.224,0.096,0.319,0.27    l5.175,9.461c0.145,0.267,0.061,0.478,0.01,0.5c-0.084,0-0.261-0.079-0.376-0.29l-4.17-7.623l-0.569-1.04h-1.186h-10.729    l-0.061-0.01h-0.16h-0.09l-0.077,0.001l-0.037,0.001c-0.568,0-1.043-0.444-1.08-1.012l-0.71-10.826    c-0.039-0.6,0.416-1.118,1.007-1.156l0.647-0.039L278.149,428.927 M278.149,426.927c-0.068,0-0.137,0.002-0.206,0.007    l-0.639,0.039c-1.701,0.11-2.99,1.58-2.881,3.28l0.71,10.829c0.107,1.632,1.466,2.881,3.076,2.881    c0.038,0,0.076-0.001,0.114-0.002h0.09c0.061,0.01,0.12,0.01,0.18,0.01h10.771l4.17,7.623c0.461,0.84,1.301,1.33,2.131,1.33    c0.34,0,0.67-0.08,0.979-0.25c1.07-0.59,1.41-2.02,0.771-3.201l-5.18-9.47c-0.391-0.71-1.041-1.16-1.73-1.28    c-0.27-0.09-0.551-0.14-0.85-0.14h-7.861l-0.16-2.41h6.352c0.84,0,1.52-0.76,1.52-1.689c0-0.931-0.68-1.69-1.52-1.69h-6.57    l-0.19-2.99C281.118,428.173,279.762,426.927,278.149,426.927L278.149,426.927z" fill="#241F20"/></g><g><circle cx="277.667" cy="422.505" fill="#241F20" r="2.583"/><path d="M277.667,420.922c0.873,0,1.584,0.71,1.584,1.583s-0.711,1.583-1.584,1.583s-1.583-0.71-1.583-1.583    S276.794,420.922,277.667,420.922 M277.667,418.922c-1.979,0-3.583,1.604-3.583,3.583s1.604,3.583,3.583,3.583    c1.979,0,3.584-1.604,3.584-3.583S279.646,418.922,277.667,418.922L277.667,418.922z" fill="#241F20"/></g><path d="M270.166,435.504c0,0-5.969,4.249-5.406,11.968s6.625,12.156,11.875,12.906s11.062-1.416,14.312-7.145   c0.312-0.699,0.656-1.199,0-1.824c0,0-0.844-0.656-1.5,0.344s-1.625,3.531-5.188,5.344c-2.188,1.125-5.094,2.125-9.125,0.906   s-9.031-5.844-8.375-12.344c0.438-3.438,1.594-6.156,5.219-8.968c0.75-0.688,0.719-1.156,0.375-1.562s-0.875-0.5-1.375-0.188   S270.166,435.504,270.166,435.504z" fill="#241F20"/></g><g><g><path d="M54.156,51.265c-0.946,0-1.887-0.598-2.394-1.522l-6.685-12.22c0,0-17.165,0.001-17.185,0.001    c-0.02,0-0.215-0.016-0.215-0.016l-0.312,0.003c-1.959,0-3.595-1.532-3.724-3.488l-1.09-16.62    c-0.132-2.056,1.433-3.838,3.489-3.972l0.977-0.061c0.086-0.005,0.169-0.008,0.252-0.008c1.961,0,3.598,1.529,3.725,3.48    l0.352,5.524h11.023c0.734,0,1.332,0.715,1.332,1.595c0,0.878-0.598,1.593-1.332,1.593H31.552l0.378,5.7h13.002    c0.336,0,0.659,0.053,0.988,0.163l0.071,0.023l0.073,0.013c0.807,0.14,1.519,0.673,1.952,1.461l7.948,14.533    c0.717,1.325,0.363,2.923-0.789,3.558C54.862,51.177,54.52,51.265,54.156,51.265z" fill="#241F20"/><path d="M27.269,14.362c1.436,0,2.634,1.118,2.727,2.542l0.292,4.589l0.119,1.873h1.877h10.085    c0.117,0,0.332,0.226,0.332,0.595c0,0.368-0.215,0.593-0.332,0.593H32.62h-2.137l0.142,2.132l0.246,3.7l0.124,1.868h1.872h12.066    c0.228,0,0.446,0.037,0.672,0.111l0.142,0.048l0.148,0.025c0.498,0.087,0.964,0.445,1.244,0.955l7.945,14.527    c0.458,0.847,0.283,1.838-0.39,2.209c-0.168,0.093-0.339,0.136-0.537,0.136c-0.587,0-1.183-0.394-1.516-1.002l-6.4-11.7    l-0.569-1.04h-1.186H27.954h-0.027l-0.092-0.015h-0.157h-0.138h-0.036l-0.037,0.001l-0.102,0.002    c-1.435,0-2.632-1.122-2.727-2.553L23.55,17.339c-0.097-1.507,1.049-2.813,2.549-2.911l0.986-0.061    C27.147,14.364,27.208,14.362,27.269,14.362 M27.269,12.362c-0.104,0-0.208,0.003-0.313,0.01l-0.98,0.061    c-2.611,0.169-4.59,2.425-4.422,5.035l1.09,16.621c0.166,2.505,2.25,4.422,4.723,4.422c0.058,0,0.116-0.001,0.174-0.003h0.138    c0.093,0.015,0.185,0.015,0.276,0.015h16.531l6.4,11.7c0.707,1.289,1.996,2.042,3.271,2.042c0.521,0,1.028-0.123,1.502-0.384    c1.643-0.905,2.165-3.1,1.184-4.913l-7.949-14.535c-0.6-1.09-1.599-1.781-2.656-1.965c-0.414-0.138-0.846-0.214-1.305-0.214    H32.866l-0.246-3.7h9.749c1.289,0,2.332-1.166,2.332-2.593c0-1.429-1.043-2.595-2.332-2.595H32.284l-0.292-4.589    C31.828,14.273,29.745,12.362,27.269,12.362L27.269,12.362z" fill="#241F20"/></g><g><path d="M26.532,10.076c-2.481,0-4.5-2.019-4.5-4.5s2.019-4.5,4.5-4.5c2.482,0,4.501,2.019,4.501,4.5    S29.014,10.076,26.532,10.076z" fill="#241F20"/><path d="M26.532,2.075c1.931,0,3.501,1.57,3.501,3.5c0,1.93-1.57,3.5-3.501,3.5c-1.93,0-3.5-1.57-3.5-3.5    C23.032,3.646,24.602,2.075,26.532,2.075 M26.532,0.075c-3.037,0-5.5,2.463-5.5,5.5c0,3.038,2.462,5.5,5.5,5.5    c3.038,0,5.501-2.463,5.501-5.5C32.033,2.538,29.57,0.075,26.532,0.075L26.532,0.075z" fill="#241F20"/></g><path d="M15.019,25.527c0,0-9.161,6.521-8.298,18.369c0.863,11.847,10.168,18.658,18.227,19.809   c8.059,1.151,16.979-2.173,21.968-10.966c0.479-1.073,1.007-1.84,0-2.8c0,0-1.295-1.007-2.303,0.527   c-1.007,1.535-2.494,5.421-7.961,8.202c-3.358,1.727-7.819,3.262-14.006,1.392c-6.188-1.871-13.862-8.97-12.854-18.946   c0.671-5.276,2.446-9.449,8.01-13.765c1.151-1.055,1.103-1.774,0.575-2.398c-0.527-0.624-1.343-0.768-2.11-0.288   C15.498,25.144,15.019,25.527,15.019,25.527z" fill="#241F20"/></g></svg>