<?xml version="1.0" encoding="utf-8"?>
<!-- Generator: Adobe Illustrator 16.0.0, SVG Export Plug-In . SVG Version: 6.00 Build 0)  -->
<!DOCTYPE svg PUBLIC "-//W3C//DTD SVG 1.1//EN" "http://www.w3.org/Graphics/SVG/1.1/DTD/svg11.dtd">
<svg version="1.1" id="Layer_1" xmlns="http://www.w3.org/2000/svg" xmlns:xlink="http://www.w3.org/1999/xlink" x="0px" y="0px"
	 width="22px" height="20px" viewBox="0 0 22 20" enable-background="new 0 0 22 20" xml:space="preserve">
<g opacity="0.5" enable-background="new    ">
	<g>
		<path fill="#FFFFFF" d="M16.217,1C19.261,1,21,3.165,21,6.196C21,12.331,11,19,11,19S1,12.259,1,6.196C1,3.166,2.74,1,5.783,1
			C8.79,1,11,4.464,11,4.464S13.246,1,16.217,1"/>
	</g>
	<g opacity="0.255">
		<path fill="#003B59" d="M10.999,19.602l-0.278-0.187C10.303,19.133,0.5,12.453,0.5,6.196C0.5,2.736,2.574,0.5,5.783,0.5
			c2.479,0,4.406,2.07,5.219,3.113C11.824,2.571,13.765,0.5,16.217,0.5c3.209,0,5.283,2.236,5.283,5.696
			c0,6.33-9.806,12.942-10.223,13.22L10.999,19.602z M5.783,1.5C3.141,1.5,1.5,3.299,1.5,6.196c0,5.174,7.905,11.06,9.501,12.195
			C12.6,17.266,20.5,11.433,20.5,6.196c0-2.896-1.642-4.696-4.283-4.696c-2.668,0-4.776,3.204-4.797,3.236l-0.422,0.651
			l-0.419-0.653C10.558,4.701,8.476,1.5,5.783,1.5z"/>
	</g>
</g>
</svg>
