<svg xmlns="http://www.w3.org/2000/svg" width="19" height="20" viewBox="0 0 19 20">
    <path fill="#99B1BD" fill-rule="evenodd" d="M17.731 18.751H1.269c-.257-1.031.104-2.681.518-3.196.64-.345 3.42-1.106 5.814-1.663v-1.994C6.01 10.83 5.068 8.512 5.068 6.404c0-2.849.738-5.159 4.43-5.159 3.692 0 4.43 2.31 4.43 5.159 0 2.107-.94 4.424-2.528 5.491v1.98c2.382.564 5.175 1.339 5.825 1.681.407.519.762 2.164.506 3.195m.308-4.248c-.457-.465-4.047-1.39-5.7-1.798 1.778-1.371 2.862-3.908 2.862-6.324C15.201 2.858 14.164 0 9.498 0 4.833 0 3.797 2.858 3.797 6.381c0 2.424 1.089 4.966 2.877 6.337-1.693.408-5.229 1.308-5.7 1.785C-.018 15.5-.42 18.5.571 20H18.43c.983-1.499.591-4.499-.391-5.497"/>
</svg>
