<?xml version="1.0" encoding="utf-8"?>
<!-- Generator: Adobe Illustrator 16.0.0, SVG Export Plug-In . SVG Version: 6.00 Build 0)  -->
<!DOCTYPE svg PUBLIC "-//W3C//DTD SVG 1.1//EN" "http://www.w3.org/Graphics/SVG/1.1/DTD/svg11.dtd">
<svg version="1.1" id="Layer_1" xmlns="http://www.w3.org/2000/svg" xmlns:xlink="http://www.w3.org/1999/xlink" x="0px" y="0px"
	 width="18px" height="18px" viewBox="0 0 18 18" enable-background="new 0 0 18 18" xml:space="preserve">
<g transform="translate(0 -6)">
	<g>
		<g id="a">
			<path fill="#003B59" d="M13.548,6.433c-0.817,1.21-1.626,2.426-2.423,3.65c-0.101,0.173-0.151,0.37-0.146,0.57
				c0,0.274,0.08,0.578,0.236,0.877c0.153,0.288,0.653,1.164,0.9,1.595c-0.268,0.376-0.949,1.264-2.352,2.662
				c-1.394,1.39-2.291,2.076-2.671,2.343c-0.43-0.245-1.31-0.743-1.599-0.896c-0.545-0.286-1.09-0.318-1.456-0.086
				c-1.214,0.795-2.422,1.6-3.624,2.414C0.145,19.757,0,20.105,0,20.48c0,0.297,0.09,0.613,0.281,0.887
				c0.02,0.025,1.905,2.668,2.996,2.633c3.068-0.098,6.674-3.072,9.159-5.548C14.919,15.975,17.9,12.38,18,9.306
				c0-1.1-2.615-2.99-2.641-3.009C14.648,5.801,13.867,5.982,13.548,6.433z"/>
		</g>
	</g>
	<g>
		<path fill="#FFFFFF" d="M3.256,24c-0.289,0-0.658-0.183-1.098-0.543c-0.256-0.213-0.525-0.472-0.801-0.771
			c-0.383-0.419-0.746-0.862-1.077-1.32C0.098,21.105,0,20.792,0,20.48c0-0.388,0.155-0.73,0.414-0.917
			c1.204-0.816,2.409-1.618,3.62-2.411c0.368-0.234,0.927-0.2,1.461,0.083c0.538,0.293,1.069,0.59,1.597,0.895l0,0
			c0.493-0.345,1.354-1.03,2.671-2.343c1.033-1.028,1.846-1.948,2.352-2.662c-0.447-0.782-0.778-1.365-0.899-1.595
			c-0.155-0.294-0.236-0.597-0.236-0.877c-0.006-0.192,0.043-0.389,0.143-0.563c0.803-1.232,1.608-2.445,2.424-3.651
			c0.356-0.505,1.191-0.575,1.814-0.141C16.093,6.807,18,8.343,18,9.305c-0.079,2.469-1.951,5.544-5.564,9.147
			C8.818,22.056,5.737,23.922,3.277,24H3.256z M4.618,17.495c-0.125,0-0.233,0.026-0.314,0.077c-1.205,0.789-2.408,1.591-3.604,2.4
			c-0.121,0.088-0.2,0.284-0.2,0.508c0,0.211,0.066,0.422,0.187,0.596c0.318,0.438,0.667,0.867,1.038,1.271
			c0.261,0.283,0.514,0.527,0.751,0.725c0.486,0.397,0.72,0.429,0.78,0.429v0.25l0.005-0.25c2.296-0.072,5.346-1.94,8.821-5.401
			c3.471-3.461,5.345-6.505,5.418-8.801c0-0.478-1.134-1.692-2.427-2.59c-0.396-0.276-0.924-0.258-1.117,0.016
			c-0.811,1.199-1.614,2.41-2.409,3.627c-0.045,0.081-0.072,0.188-0.068,0.295c0,0.204,0.063,0.433,0.179,0.652
			c0.12,0.228,0.448,0.806,0.891,1.58l0.16,0.276l-0.187,0.261c-0.521,0.736-1.354,1.679-2.405,2.726
			c-1.063,1.06-2.009,1.889-2.737,2.398l-0.259,0.183l-0.275-0.157c-0.526-0.303-1.055-0.599-1.587-0.889
			C5.035,17.558,4.813,17.495,4.618,17.495z"/>
	</g>
</g>
</svg>
