<?xml version="1.0" encoding="utf-8"?>
<!-- Generator: Adobe Illustrator 16.0.0, SVG Export Plug-In . SVG Version: 6.00 Build 0)  -->
<!DOCTYPE svg PUBLIC "-//W3C//DTD SVG 1.1//EN" "http://www.w3.org/Graphics/SVG/1.1/DTD/svg11.dtd">
<svg version="1.1" id="Layer_1" xmlns="http://www.w3.org/2000/svg" xmlns:xlink="http://www.w3.org/1999/xlink" x="0px" y="0px"
	 width="40px" height="40px" viewBox="0 0 40 40" enable-background="new 0 0 40 40" xml:space="preserve">
<g>
	<g>
		<g>
			<g id="a">
				<path fill="#FFFFFF" d="M3,0h34c1.656,0,3,1.343,3,3v34c0,1.656-1.344,3-3,3H3c-1.657,0-3-1.344-3-3V3C0,1.343,1.343,0,3,0z"/>
			</g>
		</g>
		<g>
			<path fill="#003B59" d="M36.5,40h-33C1.57,40,0,38.43,0,36.5v-33C0,1.57,1.57,0,3.5,0h33C38.43,0,40,1.57,40,3.5v33
				C40,38.43,38.43,40,36.5,40z M3.5,1C2.122,1,1,2.122,1,3.5v33C1,37.879,2.122,39,3.5,39h33c1.379,0,2.5-1.121,2.5-2.5v-33
				C39,2.122,37.879,1,36.5,1H3.5z"/>
		</g>
	</g>
	<g>
		<g>
			<path fill="#003B59" d="M10.399,11h2.203C12.822,11,13,10.821,13,10.602v-0.204C13,10.178,12.822,10,12.602,10h-2.203
				c-0.22,0-0.398,0.178-0.399,0.398v0.204C10.001,10.822,10.179,11,10.399,11 M23.5,26c-3.038,0-5.5-2.463-5.5-5.5
				c0-3.038,2.462-5.5,5.5-5.5c3.037,0,5.5,2.462,5.5,5.5C29,23.537,26.537,26,23.5,26z M16,15.602C16,15.822,15.821,16,15.601,16
				h-5.202C10.179,16,10,15.822,10,15.602v-0.204C10,15.179,10.178,15,10.399,15h5.202C15.822,15,16,15.179,16,15.398V15.602z
				 M30.5,12h-22C7.671,12,7,12.671,7,13.5v14C7,28.328,7.671,29,8.5,29l0,0h22c0.828,0,1.5-0.672,1.5-1.5l0,0v-14
				C32,12.671,31.328,12,30.5,12z"/>
		</g>
		<g>
			<path fill="#003B59" d="M25.5,18h-4c-0.276,0-0.5,0.224-0.5,0.5v4c0,0.276,0.224,0.5,0.5,0.5h4c0.276,0,0.5-0.224,0.5-0.5v-4
				C26,18.224,25.776,18,25.5,18"/>
		</g>
	</g>
</g>
</svg>
