<?xml version="1.0" encoding="utf-8"?>
<!-- Generator: Adobe Illustrator 16.0.0, SVG Export Plug-In . SVG Version: 6.00 Build 0)  -->
<!DOCTYPE svg PUBLIC "-//W3C//DTD SVG 1.1//EN" "http://www.w3.org/Graphics/SVG/1.1/DTD/svg11.dtd">
<svg version="1.1" id="Layer_1" xmlns="http://www.w3.org/2000/svg" xmlns:xlink="http://www.w3.org/1999/xlink" x="0px" y="0px"
	 width="20px" height="20px" viewBox="0 0 20 20" enable-background="new 0 0 20 20" xml:space="preserve">
<g>
	<path fill="#00052E" d="M8.88,15.632c-3.729,0-6.753-3.023-6.753-6.753S5.15,2.126,8.88,2.126c3.729,0.045,6.717,3.106,6.671,6.836
		C15.507,12.627,12.546,15.588,8.88,15.632 M8.88,1C4.528,1,1,4.527,1,8.879c0,4.352,3.527,7.88,7.879,7.88c0,0,0.001,0,0.001,0
		c4.353,0,7.88-3.528,7.88-7.88C16.759,4.528,13.231,1,8.88,1 M18.831,18.018l-3.197-3.197c-0.254,0.289-0.524,0.56-0.813,0.813
		l3.197,3.198c0.225,0.225,0.589,0.225,0.813,0S19.056,18.242,18.831,18.018L18.831,18.018"/>
	<path fill="#00052E" d="M18.424,19.562c-0.291,0-0.582-0.111-0.804-0.333l-3.623-3.623l0.169-0.147
		c-1.447,1.166-3.287,1.864-5.286,1.864c-2.256,0-4.376-0.878-5.971-2.473c-1.594-1.595-2.473-3.715-2.472-5.97
		c0-2.255,0.878-4.375,2.473-5.97c1.594-1.594,3.714-2.472,5.969-2.472c0,0,0,0,0.001,0c4.654,0,8.441,3.788,8.442,8.442
		c0,2.012-0.708,3.863-1.888,5.315l0.173-0.196l3.621,3.622c0.444,0.443,0.444,1.165,0,1.608
		C19.007,19.45,18.716,19.562,18.424,19.562z M15.629,15.646l2.786,2.787l0.019-0.019l-2.787-2.786
		C15.641,15.635,15.635,15.641,15.629,15.646z M8.879,1.563c-1.954,0-3.792,0.761-5.173,2.143c-1.382,1.382-2.144,3.22-2.144,5.174
		s0.761,3.792,2.143,5.174c1.382,1.383,3.219,2.144,5.174,2.144c4.036,0,7.319-3.283,7.319-7.318
		C16.196,4.845,12.914,1.563,8.879,1.563C8.879,1.563,8.879,1.563,8.879,1.563z M8.887,16.195L8.88,15.633v0.562
		c-4.034,0-7.315-3.281-7.315-7.315c0-4.034,3.282-7.315,7.315-7.315c1.961,0.024,3.789,0.807,5.153,2.206
		c1.365,1.398,2.104,3.245,2.08,5.199C16.065,12.972,12.891,16.146,8.887,16.195z M8.873,2.688c-3.407,0-6.184,2.777-6.184,6.19
		c0,3.413,2.777,6.19,6.19,6.19v0.001c3.386-0.045,6.067-2.729,6.108-6.115c0.021-1.654-0.604-3.216-1.76-4.4
		S10.526,2.708,8.873,2.688z"/>
</g>
</svg>
