<?xml version="1.0" encoding="utf-8"?>
<!-- Generator: Adobe Illustrator 16.0.0, SVG Export Plug-In . SVG Version: 6.00 Build 0)  -->
<!DOCTYPE svg PUBLIC "-//W3C//DTD SVG 1.1//EN" "http://www.w3.org/Graphics/SVG/1.1/DTD/svg11.dtd">
<svg version="1.1" id="Layer_1" xmlns="http://www.w3.org/2000/svg" xmlns:xlink="http://www.w3.org/1999/xlink" x="0px" y="0px"
	 width="20px" height="20px" viewBox="0 0 20 20" enable-background="new 0 0 20 20" xml:space="preserve">
<g transform="rotate(90 10 10)">
	<g>
		<circle fill="#003B59" cx="10" cy="10" r="10"/>
	</g>
	<g>
		<path fill="#FFFFFF" d="M9.15,13c0.04,0,0.079-0.017,0.106-0.046l2.7-2.842c0.06-0.063,0.06-0.161,0-0.224l-2.7-2.842
			C9.201,6.987,9.109,6.984,9.051,7.039C9.049,7.041,9.046,7.043,9.044,7.046c-0.058,0.063-0.058,0.16,0,0.224L11.639,10
			l-2.595,2.73c-0.059,0.063-0.059,0.161,0,0.224C9.073,12.984,9.111,13,9.15,13"/>
		<path fill="#FFFFFF" d="M12.501,10c0,0.17-0.064,0.332-0.182,0.456l-2.701,2.843C9.5,13.425,9.328,13.5,9.15,13.5
			c-0.174,0-0.338-0.069-0.462-0.195c-0.248-0.264-0.24-0.669-0.008-0.917L10.949,10L8.682,7.614
			C8.442,7.354,8.45,6.953,8.675,6.708C8.834,6.557,8.999,6.495,9.171,6.5c0.173,0.006,0.333,0.078,0.451,0.205l2.697,2.839
			C12.437,9.668,12.501,9.83,12.501,10z"/>
	</g>
</g>
</svg>
