<?xml version="1.0" encoding="utf-8"?>
<!-- Generator: Adobe Illustrator 16.0.0, SVG Export Plug-In . SVG Version: 6.00 Build 0)  -->
<!DOCTYPE svg PUBLIC "-//W3C//DTD SVG 1.1//EN" "http://www.w3.org/Graphics/SVG/1.1/DTD/svg11.dtd">
<svg version="1.1" id="Layer_1" xmlns="http://www.w3.org/2000/svg" xmlns:xlink="http://www.w3.org/1999/xlink" x="0px" y="0px"
	 width="30px" height="30px" viewBox="0 0 30 30" enable-background="new 0 0 30 30" xml:space="preserve">
<g>
	<g>
		<circle fill="#003B59" cx="15" cy="15" r="15"/>
	</g>
	<g>
		<path fill="#FFFFFF" d="M13.25,20c0.067,0,0.131-0.028,0.177-0.077l4.5-4.737c0.098-0.105,0.098-0.267,0-0.372l-4.5-4.737
			c-0.09-0.098-0.243-0.104-0.34-0.014c-0.004,0.004-0.009,0.009-0.013,0.014c-0.098,0.104-0.098,0.267,0,0.372L17.396,15
			l-4.323,4.552c-0.098,0.104-0.098,0.268,0,0.372C13.119,19.973,13.183,20.001,13.25,20"/>
		<path fill="#FFFFFF" d="M13.25,20.358c-0.166,0-0.325-0.07-0.438-0.191c-0.225-0.24-0.225-0.618,0-0.859L16.904,15l-4.09-4.305
			c-0.227-0.244-0.227-0.622-0.002-0.862c0.148-0.14,0.295-0.207,0.461-0.19c0.16,0.006,0.308,0.075,0.416,0.192l4.496,4.732
			c0.227,0.244,0.227,0.621,0.003,0.861l-4.503,4.74C13.574,20.288,13.415,20.357,13.25,20.358L13.25,20.358z"/>
	</g>
</g>
</svg>
