<?xml version="1.0" encoding="utf-8"?>
<!-- Generator: Adobe Illustrator 16.0.0, SVG Export Plug-In . SVG Version: 6.00 Build 0)  -->
<!DOCTYPE svg PUBLIC "-//W3C//DTD SVG 1.1//EN" "http://www.w3.org/Graphics/SVG/1.1/DTD/svg11.dtd">
<svg version="1.1" id="Layer_1" xmlns="http://www.w3.org/2000/svg" xmlns:xlink="http://www.w3.org/1999/xlink" x="0px" y="0px"
	 width="30px" height="30px" viewBox="0 0 30 30" enable-background="new 0 0 30 30" xml:space="preserve">
<g>
	<g opacity="0.1" enable-background="new    ">
		<circle fill="#003B59" cx="15" cy="15" r="15"/>
	</g>
	<g>
		<path fill="#003B59" d="M16.75,20c-0.066,0-0.131-0.028-0.177-0.077l-4.5-4.737c-0.098-0.105-0.098-0.267,0-0.372l4.5-4.737
			c0.09-0.098,0.243-0.104,0.341-0.014c0.004,0.004,0.009,0.009,0.013,0.014c0.098,0.104,0.098,0.267,0,0.372L12.604,15l4.323,4.552
			c0.098,0.104,0.098,0.268,0,0.372C16.881,19.973,16.817,20.001,16.75,20"/>
		<path fill="#003B59" d="M16.75,20.358L16.75,20.358c-0.164-0.001-0.323-0.07-0.437-0.191l-4.499-4.735
			c-0.227-0.244-0.227-0.621-0.002-0.861l4.502-4.74c0.104-0.113,0.252-0.182,0.412-0.188c0.16-0.009,0.313,0.05,0.43,0.158
			c0.256,0.272,0.256,0.65,0.032,0.891L13.096,15l4.089,4.306c0.228,0.243,0.228,0.621,0.002,0.862
			C17.073,20.289,16.914,20.358,16.75,20.358z"/>
	</g>
</g>
</svg>
