<svg xmlns="http://www.w3.org/2000/svg" width="17" height="24" viewBox="0 0 17 24">
    <path fill="#003B59" fill-rule="evenodd" d="M16.41 15.523a3.822 3.822 0 0 1-1.954 2.678c-.431.23-.93.479-1.463.72l2.977 4.323a.484.484 0 0 1-.116.669.468.468 0 0 1-.657-.117l-1.181-1.716H2.512l-1.181 1.716a.468.468 0 0 1-.658.117.484.484 0 0 1-.115-.669l3.092-4.49a26.365 26.365 0 0 1-1.106-.553A3.822 3.822 0 0 1 .59 15.523C.322 14.103 0 12.161 0 11.04c0-.123.006-.258.012-.396a.491.491 0 0 1 .008-.222c.002-.004.006-.007.006-.012.186-2.663 1.41-7.537 2.322-9.579A1.404 1.404 0 0 1 3.634 0h9.732c.553 0 1.058.32 1.286.831.911 2.042 2.136 6.916 2.322 9.58 0 .004.004.007.006.01.022.077.02.15.008.223.006.138.012.273.012.396 0 1.121-.322 3.062-.59 4.483zm-3.66 1.757c1.044 0 1.889-.86 1.889-1.92s-.845-1.92-1.889-1.92-1.889.86-1.889 1.92.845 1.92 1.889 1.92zm0-2.88c.52 0 .944.431.944.96 0 .529-.424.96-.944.96a.954.954 0 0 1-.944-.96c0-.529.424-.96.944-.96zm.604 6.72l-1.253-1.82c-1.2.48-2.492.86-3.601.86-1.224 0-2.67-.459-3.97-1.009L3.173 21.12h10.181zM2.361 15.36c0 1.06.845 1.92 1.889 1.92s1.889-.86 1.889-1.92-.845-1.92-1.889-1.92-1.889.86-1.889 1.92zm2.833 0c0 .529-.424.96-.944.96a.954.954 0 0 1-.944-.96c0-.529.424-.96.944-.96s.944.431.944.96zM.99 10.212c1.17.33 4.841 1.308 7.51 1.308 2.669 0 6.34-.977 7.51-1.308-.233-2.577-1.381-7.111-2.218-8.984a.462.462 0 0 0-.426-.268H3.634a.462.462 0 0 0-.426.268C2.372 3.1 1.223 7.635.99 10.212zM10.86 2.4c0 .265-.211.48-.472.48H6.61a.476.476 0 0 1-.472-.48c0-.265.211-.48.472-.48h3.778c.26 0 .472.215.472.48z"/>
</svg>
